<?xml version='1.0' encoding='utf-8'?>
<svg xmlns="http://www.w3.org/2000/svg" width="390" height="844" viewBox="0 0 390 844" role="img" aria-labelledby="screen-title screen-description"><title id="screen-title">saved-mobile</title><desc id="screen-description">Editable low-fidelity wireframe derived from captured current frontend DOM coordinates. This is a local review asset, not a completed Figma screen.</desc><metadata>{"source": "saved-mobile.json", "url": "http://127.0.0.1:4173/learning-centre", "screenshot": "saved-mobile.jpg", "method": "Captured DOM geometry; neutral fills; editable SVG text and shapes", "limitations": "Backdrop blur and extra stacked shadows are not recreated; SVG font rendering and importer support may vary."}</metadata><defs><clipPath id="viewport"><rect x="0" y="0" width="390" height="844" /></clipPath><clipPath id="clip-0"><rect x="0" y="0" width="390" height="844" /></clipPath><clipPath id="clip-1"><rect x="0" y="0" width="390" height="844" /></clipPath><clipPath id="clip-2"><rect x="0" y="0" width="390" height="844" /></clipPath><clipPath id="clip-3"><rect x="0" y="0" width="390" height="844" /></clipPath><clipPath id="clip-4"><rect x="25" y="123.5" width="341" height="583.5" /></clipPath><clipPath id="clip-5"><rect x="25" y="123.5" width="341" height="583.5" /></clipPath><clipPath id="clip-6"><rect x="0" y="0" width="390" height="844" /></clipPath><clipPath id="clip-7"><rect x="25" y="123.5" width="341" height="583.5" /></clipPath><clipPath id="clip-8"><rect x="25" y="123.5" width="341" height="583.5" /></clipPath><clipPath id="clip-9"><rect x="0" y="0" width="390" height="844" /></clipPath><clipPath id="clip-10"><rect x="0" y="0" width="390" height="844" /></clipPath><clipPath id="clip-11"><rect x="0" y="0" width="390" height="844" /></clipPath><clipPath id="clip-12"><rect x="0" y="0" width="390" height="844" /></clipPath><clipPath id="clip-13"><rect x="0" y="0" width="390" height="844" /></clipPath><clipPath id="clip-14"><rect x="25" y="123.5" width="341" height="583.5" /></clipPath><clipPath id="clip-15"><rect x="25" y="123.5" width="341" height="583.5" /></clipPath><clipPath id="clip-16"><rect x="25" y="123.5" width="341" height="583.5" /></clipPath><clipPath id="clip-17"><rect x="0" y="0" width="390" height="844" /></clipPath><clipPath id="clip-18"><rect x="0" y="0" width="390" height="844" /></clipPath><clipPath id="clip-19"><rect x="0" y="0" width="390" height="844" /></clipPath></defs><rect id="canvas" x="0" y="0" width="390" height="844" fill="#ffffff" /><g id="captured-screen" clip-path="url(#viewport)"><g id="boxes-1" clip-path="url(#clip-0)"><title>div</title><rect x="0" y="0" width="390" height="844" rx="0" fill="#f3f3f3" stroke="none" stroke-width="0" /></g><g id="boxes-2" clip-path="url(#clip-1)"><title>div</title><rect x="25" y="723" width="341" height="97" rx="0" fill="#f3f3f3" stroke="#a0a0a0" stroke-width="1" /></g><g id="boxes-3" clip-path="url(#clip-2)"><title>button</title><rect x="25" y="768" width="341" height="36" rx="10" fill="#e5e5e5" stroke="#a0a0a0" stroke-width="1" /></g><g id="boxes-4" clip-path="url(#clip-3)"><title>button</title><rect x="336" y="20" width="34" height="34" rx="17" fill="#e5e5e5" stroke="#a0a0a0" stroke-width="1" /></g><g id="icons-1" clip-path="url(#clip-4)"><svg width="16" height="16" viewBox="0 0 24 24" fill="none" stroke="#333333" stroke-width="2" stroke-linecap="round" stroke-linejoin="round" class="lucide lucide-arrow-right" aria-hidden="true" x="164.875" y="206" color="#333333"><path d="M5 12h14" /><path d="m12 5 7 7-7 7" /></svg></g><g id="icons-2" clip-path="url(#clip-5)"><svg width="16" height="16" viewBox="0 0 24 24" fill="none" stroke="#333333" stroke-width="2" stroke-linecap="round" stroke-linejoin="round" class="lucide lucide-trash2 lucide-trash-2" aria-hidden="true" x="218.875" y="206" color="#333333"><path d="M10 11v6" /><path d="M14 11v6" /><path d="M19 6v14a2 2 0 0 1-2 2H7a2 2 0 0 1-2-2V6" /><path d="M3 6h18" /><path d="M8 6V4a2 2 0 0 1 2-2h4a2 2 0 0 1 2 2v2" /></svg></g><g id="icons-3" clip-path="url(#clip-6)"><svg width="16" height="16" viewBox="0 0 24 24" fill="none" stroke="#333333" stroke-width="2" stroke-linecap="round" stroke-linejoin="round" class="lucide lucide-x size-4" aria-hidden="true" x="345" y="29" color="#333333"><path d="M18 6 6 18" /><path d="m6 6 12 12" /></svg></g><g id="wrap-hit-saved-mobile-1-Edit-learning-plan" clip-path="url(#clip-7)"><title>Edit learning plan</title><desc>{"role": "button", "label": "Edit learning plan", "href": null}</desc><rect id="hit-saved-mobile-1-Edit-learning-plan" x="25" y="196" width="171.875" height="36" fill="#ffffff" fill-opacity="0.001" stroke="none" /></g><g id="wrap-hit-saved-mobile-2-Remove-Pandas-from-saved-courses" clip-path="url(#clip-8)"><title>Remove Pandas from saved courses</title><desc>{"role": "button", "label": "Remove Pandas from saved courses", "href": null}</desc><rect id="hit-saved-mobile-2-Remove-Pandas-from-saved-courses" x="208.875" y="196" width="36" height="36" fill="#ffffff" fill-opacity="0.001" stroke="none" /></g><g id="wrap-hit-saved-mobile-3-Export-list" clip-path="url(#clip-9)"><title>Export list</title><desc>{"role": "button", "label": "Export list", "href": null}</desc><rect id="hit-saved-mobile-3-Export-list" x="25" y="768" width="341" height="36" fill="#ffffff" fill-opacity="0.001" stroke="none" /></g><g id="wrap-hit-saved-mobile-4-Close-details" clip-path="url(#clip-10)"><title>Close details</title><desc>{"role": "button", "label": "Close details", "href": null}</desc><rect id="hit-saved-mobile-4-Close-details" x="336" y="20" width="34" height="34" fill="#ffffff" fill-opacity="0.001" stroke="none" /></g><g id="texts-1" clip-path="url(#clip-11)"><text x="25" y="44.2" font-family="Inter, Outfit, system-ui, sans-serif" font-size="20" font-weight="600" fill="#333333" xml:space="preserve" textLength="142.719" lengthAdjust="spacingAndGlyphs">Saved courses</text></g><g id="texts-2" clip-path="url(#clip-12)"><text x="25" y="76.14" font-family="Inter, Outfit, system-ui, sans-serif" font-size="14" font-weight="400" fill="#333333" xml:space="preserve" textLength="293.688" lengthAdjust="spacingAndGlyphs">Your shortlist. Save now and decide when to</text></g><g id="texts-3" clip-path="url(#clip-13)"><text x="25" y="100.14" font-family="Inter, Outfit, system-ui, sans-serif" font-size="14" font-weight="400" fill="#333333" xml:space="preserve" textLength="69.547" lengthAdjust="spacingAndGlyphs">learn later.</text></g><g id="texts-4" clip-path="url(#clip-14)"><text x="25" y="151.86" font-family="Inter, Outfit, system-ui, sans-serif" font-size="11" font-weight="700" fill="#333333" xml:space="preserve" letter-spacing="1.43" textLength="101.562" lengthAdjust="spacingAndGlyphs">KAGGLE LEARN</text></g><g id="texts-5" clip-path="url(#clip-15)"><text x="25" y="182.16" font-family="Inter, Outfit, system-ui, sans-serif" font-size="16" font-weight="600" fill="#333333" xml:space="preserve" textLength="57.141" lengthAdjust="spacingAndGlyphs">Pandas</text></g><g id="texts-6" clip-path="url(#clip-16)"><text x="41" y="218.64" font-family="Inter, Outfit, system-ui, sans-serif" font-size="14" font-weight="500" fill="#333333" xml:space="preserve" textLength="115.875" lengthAdjust="spacingAndGlyphs">Edit learning plan</text></g><g id="texts-7" clip-path="url(#clip-17)"><text x="25" y="752.12" font-family="Inter, Outfit, system-ui, sans-serif" font-size="12" font-weight="400" fill="#333333" xml:space="preserve" textLength="284.328" lengthAdjust="spacingAndGlyphs">Removing a saved course does not delete its plan.</text></g><g id="texts-8" clip-path="url(#clip-18)"><text x="162.062" y="790.64" font-family="Inter, Outfit, system-ui, sans-serif" font-size="14" font-weight="500" fill="#333333" xml:space="preserve" textLength="66.875" lengthAdjust="spacingAndGlyphs">Export list</text></g><g id="texts-9" clip-path="url(#clip-19)"><text x="352" y="62.16" font-family="Inter, Outfit, system-ui, sans-serif" font-size="16" font-weight="400" fill="#333333" xml:space="preserve" textLength="47.438" lengthAdjust="spacingAndGlyphs">Close</text></g></g></svg>